# xmcd
#
# Track frame offsets:
#	150
#	9275
#	20755
#	36692
#	46795
#	57885
#	70505
#	84302
#	94335
#	109835
#	116510
#	130487
#
# Disc length: 1867 seconds
#
# Revision: 0
# Processed by: cddbd v1.4PL0 Copyright (c) Steve Scherf et al.
# Submitted via: dBpowerAMP V4.0
#
DISCID=9b07490c
DTITLE=Various Artist - Traditional Country
DYEAR=1900
DGENRE=Country
TTITLE0=John Hardy
TTITLE1=Jerusalem Moan
TTITLE2=Pretty Little Miss
TTITLE3=Last old Shovel
TTITLE4=Hot Corn, Cold Corn
TTITLE5=Sitting on the Top of the World
TTITLE6=Keep on the Sunny Side
TTITLE7=Crying Holy
TTITLE8=Sweet Sunny South
TTITLE9=Poor Helen Smith
TTITLE10=Dark Holow
TTITLE11=Lost and I'll Never Find the Way
EXTD=
EXTT0=
EXTT1=
EXTT2=
EXTT3=
EXTT4=
EXTT5=
EXTT6=
EXTT7=
EXTT8=
EXTT9=
EXTT10=
EXTT11=
PLAYORDER=
